<?xml version="1.0" standalone="no"?>
<!DOCTYPE svg PUBLIC "-//W3C//DTD SVG 20010904//EN"
 "http://www.w3.org/TR/2001/REC-SVG-20010904/DTD/svg10.dtd">
<svg version="1.0" xmlns="http://www.w3.org/2000/svg"
 width="500.000000pt" height="500.000000pt" viewBox="0 0 500.000000 500.000000"
 preserveAspectRatio="xMidYMid meet">

<g transform="translate(0.000000,500.000000) scale(0.100000,-0.100000)"
fill="#000000" stroke="none">
<path d="M3045 4194 c-70 -5 -250 -34 -310 -49 -233 -59 -419 -150 -675 -331
-70 -49 -268 -255 -331 -343 -81 -115 -157 -246 -194 -336 -16 -38 -32 -74
-35 -80 -4 -5 -15 -37 -24 -70 -10 -33 -21 -71 -26 -85 -61 -184 -79 -531 -40
-760 24 -141 29 -160 69 -280 128 -380 385 -703 741 -934 46 -30 188 -103 250
-129 80 -33 97 -39 135 -52 203 -63 341 -85 555 -85 164 0 235 8 385 39 432
92 844 373 1090 745 63 97 165 282 165 301 0 4 6 21 14 38 20 43 52 146 70
220 8 34 21 87 28 117 18 75 18 545 1 613 -7 26 -18 68 -24 95 -18 76 -61 216
-70 227 -5 5 -9 15 -9 22 0 22 -88 196 -144 286 -200 318 -505 570 -866 712
-52 21 -111 42 -130 47 -19 5 -51 13 -70 19 -131 36 -416 63 -555 53z m299
-256 c49 -61 236 -476 236 -526 l0 -22 -419 0 c-273 0 -422 4 -426 10 -15 24
169 437 236 532 24 33 59 38 234 32 110 -3 122 -6 139 -26z m-684 -67 c0 -5
-13 -38 -29 -73 -45 -98 -78 -179 -101 -249 -12 -35 -25 -72 -31 -81 -5 -10
-9 -26 -9 -36 0 -40 -15 -42 -267 -42 -231 0 -243 1 -243 19 0 23 156 174 260
252 113 84 253 161 370 205 44 16 50 16 50 5z m1149 -47 c172 -80 325 -189
460 -328 55 -57 81 -90 74 -97 -6 -6 -104 -8 -253 -7 l-244 3 -24 70 c-39 114
-82 225 -123 313 -22 46 -39 88 -39 93 0 15 48 0 149 -47z m-1409 -716 c-1
-18 -5 -53 -10 -78 -17 -81 -32 -193 -44 -330 l-11 -135 -354 -3 -353 -2 5 62
c11 130 63 314 129 454 l30 64 304 0 304 0 0 -32z m1268 0 c10 -31 30 -143 52
-283 5 -33 12 -106 15 -162 l7 -103 -581 0 -581 0 0 63 c1 130 43 431 70 495
l10 22 499 0 499 0 10 -32z m891 -30 c75 -168 131 -368 131 -473 l0 -45 -349
0 -349 0 -6 28 c-3 15 -8 65 -11 112 -6 99 -22 215 -41 317 -8 40 -14 84 -14
98 l0 25 305 0 305 0 29 -62z m-2225 -785 c3 -10 10 -72 16 -138 12 -136 22
-203 45 -325 9 -47 17 -91 18 -98 2 -11 -59 -13 -308 -13 -281 0 -311 2 -322
18 -15 20 -92 213 -105 263 -25 96 -48 220 -48 263 l0 47 349 0 c324 0 350 -1
355 -17z m1398 -63 c-5 -120 -59 -457 -80 -498 -6 -10 -106 -13 -491 -13 -267
0 -487 4 -491 8 -19 23 -75 343 -86 491 l-7 92 579 -2 579 -3 -3 -75z m958 30
c0 -62 -23 -177 -57 -290 -28 -93 -97 -250 -110 -250 -267 -6 -613 -3 -614 5
-2 13 -2 11 15 97 20 98 43 264 51 368 3 47 8 93 11 103 5 16 31 17 355 17
l349 0 0 -50z m-2187 -835 c20 -63 80 -222 103 -273 13 -29 24 -55 24 -57 0
-3 11 -29 25 -57 25 -53 27 -89 2 -71 -6 5 -30 15 -52 22 -66 22 -213 99 -303
159 -139 92 -322 262 -322 299 0 11 48 13 257 11 l256 -3 10 -30z m1062 13
c-36 -125 -219 -521 -249 -540 -6 -4 -76 -8 -156 -8 -80 0 -150 4 -156 8 -28
18 -224 442 -247 535 l-7 27 410 0 411 0 -6 -22z m771 -5 c-16 -31 -133 -147
-211 -210 -122 -99 -284 -188 -471 -260 -19 -7 -18 15 5 63 49 103 90 204 156
387 l17 47 259 0 260 0 -15 -27z"/>
<path d="M87 4154 c-4 -4 -7 -794 -7 -1756 l0 -1748 875 2 876 3 2 112 c2 88
-1 114 -12 118 -7 3 -342 5 -745 5 -402 0 -737 0 -743 0 -10 0 -13 337 -15
1632 l-3 1633 -111 3 c-60 1 -113 -1 -117 -4z"/>
</g>
</svg>
