<?xml version="1.0" standalone="no"?>
<!DOCTYPE svg PUBLIC "-//W3C//DTD SVG 20010904//EN"
 "http://www.w3.org/TR/2001/REC-SVG-20010904/DTD/svg10.dtd">
<svg version="1.0" xmlns="http://www.w3.org/2000/svg"
 width="500.000000pt" height="500.000000pt" viewBox="0 0 500.000000 500.000000"
 preserveAspectRatio="xMidYMid meet">

<g transform="translate(0.000000,500.000000) scale(0.100000,-0.100000)"
fill="#000000" stroke="none">
<path d="M2805 3769 c-101 -15 -235 -58 -350 -113 -353 -170 -604 -478 -703
-866 -24 -95 -26 -123 -27 -290 0 -161 3 -198 24 -285 109 -457 433 -811 871
-952 458 -147 966 -25 1307 315 180 180 289 376 355 637 20 78 23 115 23 280
0 173 -3 199 -27 295 -79 308 -256 571 -506 750 -157 113 -378 204 -557 230
-84 12 -326 11 -410 -1z m341 -171 c34 -35 174 -346 174 -387 0 -8 -86 -11
-310 -11 -170 0 -310 2 -310 4 0 14 70 184 107 260 61 123 77 144 116 149 59
9 210 -1 223 -15z m-514 -95 c-18 -34 -64 -151 -103 -258 l-15 -40 -182 -3
c-100 -1 -182 1 -182 6 0 10 146 152 195 189 94 70 296 172 303 153 2 -5 -6
-26 -16 -47z m879 -1 c41 -21 101 -55 134 -77 61 -41 235 -201 235 -217 0 -4
-82 -7 -182 -6 l-182 3 -15 40 c-38 106 -85 223 -102 257 -10 20 -19 42 -19
47 0 13 39 -1 131 -47z m-1051 -500 c0 -5 -7 -53 -15 -108 -14 -87 -34 -257
-35 -291 0 -10 -58 -13 -255 -13 l-255 0 0 34 c0 72 50 253 96 349 l18 37 223
0 c123 0 223 -4 223 -8z m941 -87 c14 -70 39 -270 39 -317 0 -5 -191 -8 -425
-8 l-425 0 0 43 c0 64 18 213 37 300 l16 77 370 -2 370 -3 18 -90z m633 58
c46 -96 96 -277 96 -349 l0 -34 -254 0 -254 0 -6 68 c-4 37 -15 128 -26 202
-11 74 -20 138 -20 143 0 4 100 7 223 7 l223 0 18 -37z m-1620 -594 c3 -17 6
-48 6 -68 0 -20 11 -103 25 -185 14 -83 25 -151 25 -153 0 -2 -101 -3 -225 -3
l-225 0 -24 48 c-39 77 -86 238 -93 318 l-6 74 255 0 256 0 6 -31z m1019 24
c15 -24 -43 -393 -65 -421 -8 -9 -89 -12 -362 -10 l-351 3 -22 102 c-20 92
-43 260 -43 313 0 20 4 20 419 20 231 0 422 -3 424 -7z m694 -67 c-7 -80 -54
-241 -93 -318 l-24 -48 -225 0 c-124 0 -225 1 -225 3 0 2 11 70 25 153 14 82
25 165 25 185 0 20 3 51 6 68 l7 31 255 0 255 0 -6 -74z m-1597 -568 c5 -13
25 -63 44 -113 19 -49 48 -121 65 -159 l31 -68 -27 6 c-51 11 -231 107 -300
159 -73 55 -193 171 -193 187 0 6 69 10 185 10 183 0 186 0 195 -22z m780 11
c0 -37 -160 -386 -184 -401 -15 -10 -208 -10 -223 0 -25 16 -183 365 -183 404
0 4 133 8 295 8 212 0 295 -3 295 -11z m570 0 c0 -16 -116 -128 -193 -186 -68
-52 -249 -148 -299 -159 l-28 -6 34 74 c18 41 50 119 71 173 20 55 39 103 42
108 7 12 373 9 373 -4z"/>
<path d="M770 2475 l0 -1285 638 2 637 3 3 88 3 87 -556 0 -555 0 0 1195 0
1195 -85 0 -85 0 0 -1285z"/>
</g>
</svg>
